<svg version="1.1" width="600" height="250" xmlns="http://www.w3.org/2000/svg" >
<defs><marker id="arrowhead" markerWidth="10" markerHeight="7" refX="0" refY="3.5" orient="auto"><polygon points="0 0, 10 3.5, 0 7" /></marker></defs>

<path d="M 20 65 h 560 v -20 h -560 v 20" stroke="#0000FF" stroke-width="1" fill="none"/>
<path d="M 40 45 v 20" stroke="#0000FF" stroke-width="1" fill="none"/>
<path d="M 60 45 v 20" stroke="#0000FF" stroke-width="1" fill="none"/>
<path d="M 80 45 v 20" stroke="#0000FF" stroke-width="1" fill="none"/>
<path d="M 100 45 v 20" stroke="#0000FF" stroke-width="1" fill="none"/>
<path d="M 180 45 v 20" stroke="#0000FF" stroke-width="1" fill="none"/>
<path d="M 300 45 v 20" stroke="#0000FF" stroke-width="1" fill="none"/>

<text x="27" y="60" style="font-size:13px;font-family:'Arial'">T</text>
<text x="46" y="60" style="font-size:13px;font-family:'Arial'">X</text>
<text x="66" y="60" style="font-size:13px;font-family:'Arial'">T</text>
<text x="84" y="58" style="font-size:13px;font-family:'Arial'">@</text>

<text x="120" y="60" style="font-size:13px;font-family:'Microsoft Yahei UI'">4字节</text>
<text x="220" y="60" style="font-size:13px;font-family:'Microsoft Yahei UI'">32字节</text>
<text x="400" y="60" style="font-size:13px;font-family:'Microsoft Yahei UI'">可变长度</text>

<path d="M 20 68 v 5 a 5 5 0 0 0 5 5 h 30 a 5 5 0 0 1 5 5 a 5 5 0 0 1 5 -5 h 30 a 5 5 0 0 0 5 -5 v -5" stroke="#000000" stroke-width="1" fill="none"/>
<path d="M 180 68 v 5 a 5 5 0 0 0 5 5 h 50 a 5 5 0 0 1 5 5 a 5 5 0 0 1 5 -5 h 50 a 5 5 0 0 0 5 -5 v -5" stroke="#000000" stroke-width="1" fill="none"/>
<path d="M 100 42 v -5 a 5 5 0 0 1 5 -5 h 30 a 5 5 0 0 0 5 -5 a 5 5 0 0 0 5 5 h 30 a 5 5 0 0 1 5 5 v 5" stroke="#000000" stroke-width="1" fill="none"/>
<path d="M 300 42 v -5 a 5 5 0 0 1 5 -5 h 130 a 5 5 0 0 0 5 -5 a 5 5 0 0 0 5 5 h 130 a 5 5 0 0 1 5 5 v 5" stroke="#000000" stroke-width="1" fill="none"/>

<text x="20" y="100" style="font-size:13px;font-family:'Microsoft Yahei'">1.文件的类型</text>
<text x="160" y="100" style="font-size:13px;font-family:'Microsoft Yahei'">3.文件数据的SHA256哈希值</text>
<text x="100" y="20" style="font-size:13px;font-family:'Microsoft Yahei'">2.文件的长度</text>
<text x="385" y="20" style="font-size:13px;font-family:'Microsoft Yahei'">4.文档的真正数据</text>

<g transform="translate(0 110)">
<path d="M 20 65 h 560 v -20 h -560 v 20" stroke="#0000FF" stroke-width="1" fill="none"/>
<path d="M 40 45 v 20" stroke="#0000FF" stroke-width="1" fill="none"/>
<path d="M 60 45 v 20" stroke="#0000FF" stroke-width="1" fill="none"/>
<path d="M 80 45 v 20" stroke="#0000FF" stroke-width="1" fill="none"/>
<path d="M 100 45 v 20" stroke="#0000FF" stroke-width="1" fill="none"/>
<path d="M 180 45 v 20" stroke="#0000FF" stroke-width="1" fill="none"/>
<path d="M 300 45 v 20" stroke="#0000FF" stroke-width="1" fill="none"/>

<text x="27" y="60" style="font-size:13px;font-family:'Arial'">R</text>
<text x="46" y="60" style="font-size:13px;font-family:'Arial'">D</text>
<text x="66" y="60" style="font-size:13px;font-family:'Arial'">O</text>
<text x="84" y="58" style="font-size:13px;font-family:'Arial'">@</text>

<text x="120" y="60" style="font-size:13px;font-family:'Microsoft Yahei UI'">4字节</text>
<text x="220" y="60" style="font-size:13px;font-family:'Microsoft Yahei UI'">32字节</text>
<text x="400" y="60" style="font-size:13px;font-family:'Microsoft Yahei UI'">可变长度</text>

<path d="M 20 68 v 5 a 5 5 0 0 0 5 5 h 30 a 5 5 0 0 1 5 5 a 5 5 0 0 1 5 -5 h 30 a 5 5 0 0 0 5 -5 v -5" stroke="#000000" stroke-width="1" fill="none"/>
<path d="M 180 68 v 5 a 5 5 0 0 0 5 5 h 50 a 5 5 0 0 1 5 5 a 5 5 0 0 1 5 -5 h 50 a 5 5 0 0 0 5 -5 v -5" stroke="#000000" stroke-width="1" fill="none"/>
<path d="M 100 42 v -5 a 5 5 0 0 1 5 -5 h 30 a 5 5 0 0 0 5 -5 a 5 5 0 0 0 5 5 h 30 a 5 5 0 0 1 5 5 v 5" stroke="#000000" stroke-width="1" fill="none"/>
<path d="M 300 42 v -5 a 5 5 0 0 1 5 -5 h 130 a 5 5 0 0 0 5 -5 a 5 5 0 0 0 5 5 h 130 a 5 5 0 0 1 5 5 v 5" stroke="#000000" stroke-width="1" fill="none"/>

<text x="20" y="100" style="font-size:13px;font-family:'Microsoft Yahei'">1.文件的类型</text>
<text x="160" y="100" style="font-size:13px;font-family:'Microsoft Yahei'">3.文件数据的SHA256哈希值</text>
<text x="100" y="20" style="font-size:13px;font-family:'Microsoft Yahei'">2.文件的长度</text>
<text x="385" y="20" style="font-size:13px;font-family:'Microsoft Yahei'">4.文档的真正数据</text>

</g>
</svg>
